PathFileType	4	(X/Y/Z)	C:/Users/beibeiliu/ov580/test_trc/User2\sequence.27_training_dense_right.trc
DataRate	CameraRate	NumFrames	NumMarkers	Units	OrigDataRate	OrigDataStartFrame	OrigNumFrames
120	120	20	19	mm	120	105	278
Frame#	Time	ThumbCMC			ThumbMCP			ThumbIP			ThumbTip			IndexMCP			IndexPIP			IndexTip			MiddleMCP			MiddlePIP			MiddleTip			RingMCP			RingPIP			RingTip			PinkyMCP			PinkyPIP			PinkyTip			BackHand1			BackHand2			BackHand3	
		X0	Y0	Z0	X1	Y1	Z1	X2	Y2	Z2	X3	Y3	Z3	X4	Y4	Z4	X5	Y5	Z5	X6	Y6	Z6	X7	Y7	Z7	X8	Y8	Z8	X9	Y9	Z9	X10	Y10	Z10	X11	Y11	Z11	X12	Y12	Z12	X13	Y13	Z13	X14	Y14	Z14	X15	Y15	Z15	X16	Y16	Z16	X17	Y17	Z17	X18	Y18	Z18	
104	0.866667	135.1	-26.1444	46.4719	117.33	-8.32771	12.9096	86.7663	-6.70614	-5.52149	60.6026	-14.5679	-2.6251	101.034	-77.0917	-9.99277	77.8713	-73.1223	-37.6221	64.4468	-40.9556	-37.3178	76.6269	-89.1101	-4.03283	49.8254	-78.8185	-26.9642	44.5846	-39.5463	-27.4043	54.828	-78.7162	9.7282	38.613	-61.2965	-13.3999	41.1066	-25.8627	-5.20467	46.053	-70.2888	34.0662	26.9595	-57.4578	8.23307	33.1036	-23.419	0.560286	90.0808	-75.112	62.0235	105.27	-69.9241	90.3193	124.309	-66.7977	56.672	
105	0.875	135.86	-27.2813	44.1489	116.819	-8.59223	13.5465	85.6687	-5.60079	-8.47978	58.2227	-17.1407	-2.01481	98.2895	-78.5061	-10.3658	77.8695	-74.2327	-35.0384	65.6227	-42.9339	-38.2905	74.31	-88.1937	-1.6101	50.1481	-80.1794	-25.2092	46.25	-38.7703	-27.1561	55.0858	-78.1482	6.8674	39.0645	-60.0571	-13.3649	42.992	-27.2922	-9.09051	45.7148	-69.2826	33.0798	28.9859	-53.9703	5.51442	33.1182	-24.3095	1.81935	88.1096	-74.3923	59.3359	106.588	-70.3689	87.9675	125.618	-66.8583	52.5908	
106	0.883333	139.177	-25.0636	42.3697	118.763	-7.74313	13.1008	86.556	-5.8718	-8.16674	60.706	-13.3265	-2.47265	95.3179	-77.7273	-7.85844	75.9215	-75.8403	-31.0755	63.8334	-40.7808	-36.9398	70.9934	-87.4221	-0.600892	47.2154	-76.0919	-26.0884	47.2705	-33.6201	-25.6539	55.3554	-77.4496	7.88515	38.5108	-61.1094	-11.7111	44.7733	-27.0101	-9.47313	44.4919	-66.822	35.1596	25.6352	-50.8582	7.40262	29.4349	-22.7227	3.88348	84.7772	-75.6705	61.5828	102.703	-70.0414	91.1059	124.183	-68.1493	52.8022	
107	0.891667	138.879	-24.2714	43.4804	116.674	-9.3602	16.0159	87.2752	-5.48452	-7.5316	59.9626	-12.9657	-5.23523	98.4975	-78.0884	-8.09133	77.4065	-74.2243	-35.9877	65.5046	-38.4638	-37.6898	72.435	-87.8906	-2.9414	49.6291	-75.0506	-27.0011	44.6101	-36.5308	-23.9289	55.9571	-76.0469	8.70792	34.9247	-57.4333	-10.7315	45.0885	-25.5098	-8.03438	42.848	-67.0519	32.1683	27.0996	-54.1488	8.01221	33.3004	-21.3541	0.623851	85.0095	-73.5594	61.6426	104.064	-70.1789	86.6858	125.321	-66.9031	54.7807	
108	0.9	137.157	-25.9884	44.952	118.83	-9.09151	11.8563	92.4464	-1.26607	-11.9125	63.0722	-11.9678	-7.21689	98.5706	-78.4392	-6.62115	75.3256	-74.9135	-35.1058	66.0446	-40.6443	-39.3583	76.287	-85.5893	0.0764503	47.1604	-76.3563	-24.6396	48.0461	-36.1993	-25.7548	53.7502	-77.3228	7.17844	34.8711	-58.9145	-10.5461	43.72	-22.8492	-4.96003	42.0472	-67.8237	29.7058	28.2702	-53.8638	7.68803	31.2042	-20.3425	1.51035	85.1625	-72.7633	62.7542	105.957	-70.0125	86.3548	125.64	-68.9163	54.8153	
109	0.908333	139.741	-26.626	42.1933	122.552	-10.4687	13.7415	93.7631	-4.26881	-13.5445	65.7474	-12.8058	-10.4028	101.3	-78.8876	-6.94986	79.4807	-79.0485	-33.3878	64.9774	-43.1331	-40.1454	70.7661	-88.4022	-1.53043	51.5304	-75.5056	-27.8102	46.8645	-36.2603	-24.1295	52.2148	-77.8232	10.177	35.43	-61.6844	-9.45609	44.5021	-25.6445	-5.51633	44.9465	-68.5815	30.1437	27.0745	-50.705	6.925	35.9746	-20.8308	3.40556	87.0916	-73.3773	61.7535	103.577	-70.5869	89.0308	124.928	-66.349	56.5151	
110	0.916667	139.801	-29.2368	39.0784	123.398	-12.2643	10.8331	100.678	-5.41111	-15.9679	67.5627	-15.307	-18.2682	98.5168	-81.3366	-3.62683	77.0183	-79.3653	-32.5871	67.6405	-47.3741	-41.137	76.8923	-88.5843	-0.856191	49.2103	-73.0289	-26.7269	50.2483	-34.4198	-23.6017	55.6305	-78.144	11.6144	40.3712	-58.2534	-13.1732	48.4013	-27.9172	-6.5388	44.8239	-69.1356	30.4733	32.2863	-51.1866	6.05922	37.0611	-18.1829	5.32458	87.5121	-73.9616	63.944	106.039	-67.1289	90.9055	126.153	-69.8176	54.9576	
111	0.925	138.463	-30.2853	42.5981	124.667	-15.8525	13.1053	103.909	-11.1204	-15.592	72.7095	-19.1832	-19.7358	100.489	-84.367	-3.5309	79.1753	-82.1525	-31.5594	71.2165	-48.7876	-38.8811	75.5767	-89.7404	1.32048	54.2208	-76.8762	-26.2721	55.6416	-33.1559	-22.7803	55.7314	-78.5422	11.3817	43.4391	-58.993	-11.087	53.0745	-24.2879	-2.69851	50.0316	-67.7696	31.2548	35.508	-49.73	6.30729	42.0203	-19.852	7.36057	91.4553	-75.919	59.9444	104.406	-69.0041	91.7017	130.146	-68.8556	59.6182	
112	0.933333	140.091	-31.1718	43.1935	122.692	-21.9948	12.9905	103.494	-18.0503	-15.131	72.7549	-26.5162	-21.413	104.554	-85.7283	-2.73283	80.0682	-84.8037	-28.4343	72.3999	-54.7827	-34.8329	77.2686	-91.5035	-2.50172	54.2247	-77.9717	-23.6151	59.6081	-36.1185	-23.7248	59.2782	-80.1716	8.634	44.7471	-57.8917	-11.1276	56.1441	-24.0808	0.189091	48.8964	-69.2691	31.295	34.844	-48.5309	6.24673	47.5587	-19.2258	10.7477	89.786	-78.5752	63.2536	106.032	-68.8239	92.0071	128.713	-67.94	59.2395	
113	0.941667	142.658	-30.2374	43.6643	126.495	-19.7035	11.2482	102.416	-23.1601	-18.7384	74.2775	-29.526	-23.0809	103.191	-89.4085	1.07223	84.6524	-90.8753	-26.5795	71.2345	-54.1895	-32.3948	75.5489	-92.9932	4.87457	52.6031	-76.4622	-22.5909	57.3708	-41.5317	-21.996	59.8708	-81.0577	9.59101	41.7507	-60.002	-7.87254	57.9489	-25.7742	1.02566	47.7232	-72.0105	29.2586	39.2059	-50.6227	4.9937	46.232	-22.2021	10.8532	90.7499	-77.5361	63.0201	108.369	-65.2387	93.9116	130.451	-67.1833	61.7401	
114	0.95	139.755	-31.7359	42.3109	124.478	-22.8245	13.3024	102.331	-24.7112	-13.2706	73.0715	-35.7064	-20.3168	103.799	-91.7358	0.853297	81.4203	-92.3521	-24.2552	70.4416	-59.0646	-30.9933	74.5838	-97.5444	5.53342	56.3742	-84.1568	-21.3656	58.0875	-45.1188	-21.8559	60.2822	-84.2513	10.333	43.2557	-60.716	-7.9987	54.3219	-31.052	1.52886	47.565	-75.2154	33.3037	36.7435	-53.4429	6.84754	45.1886	-25.4617	12.081	91.8231	-77.8071	69.3646	108.696	-69.1707	91.1617	131.44	-67.0584	62.2347	
115	0.958333	141.287	-29.9406	45.5122	125.019	-23.406	11.5933	103.194	-26.2945	-15.7993	73.4371	-37.0909	-17.655	103.013	-92.9765	5.65907	81.5076	-95.7453	-22.7869	73.0995	-60.9468	-33.252	78.3303	-99.3779	6.19241	52.5087	-83.929	-20.3414	59.151	-44.3643	-21.9427	58.8732	-85.6753	17.3843	45.2107	-66.9062	-6.83423	54.915	-33.5579	3.75045	50.2854	-76.8161	32.6119	39.25	-57.3491	7.95564	48.4046	-29.552	10.6712	92.9258	-77.4483	69.9164	108.95	-66.5591	94.5252	128.827	-71.5631	63.5886	
116	0.966667	137.101	-34.1264	45.7005	122.405	-26.4084	11.9666	101.193	-29.4645	-17.6434	74.3411	-38.5797	-19.2228	102.939	-94.5553	5.83139	81.1214	-96.8579	-23.7163	69.3623	-62.4591	-29.0371	78.6463	-101.13	5.21378	52.3283	-85.8879	-18.1979	54.543	-47.5872	-18.7634	58.5576	-87.9472	13.9322	42.7463	-68.8691	-4.6763	54.6544	-37.2905	3.74033	51.6219	-79.0685	33.353	36.6763	-63.6712	10.8149	49.0134	-31.7485	11.223	92.7026	-80.3206	66.6257	111.516	-67.9183	97.3109	132.69	-70.5665	64.7633	
117	0.975	135.823	-34.2078	45.91	123.371	-26.233	12.0999	98.7116	-32.4887	-12.4227	70.827	-42.8637	-20.1538	103.724	-97.9621	2.3503	81.9975	-99.0266	-21.8879	68.3666	-66.5127	-29.8744	78.3025	-102.258	7.40488	56.2614	-93.4715	-17.3127	53.6684	-51.1162	-19.2711	57.3043	-90.4752	17.4803	43.4082	-72.0261	-3.17673	57.0027	-37.1272	4.31845	47.7147	-81.3378	34.2578	35.8736	-65.8813	11.4957	46.7861	-32.0529	11.5072	93.4827	-80.9899	67.3442	106.78	-67.3044	98.3279	128.94	-72.189	61.234	
118	0.983333	138.824	-33.1203	45.8196	119.687	-30.0543	12.3162	99.2724	-31.267	-14.0503	70.9407	-43.8146	-18.5941	105.112	-95.8292	5.25884	82.4318	-101.56	-20.3915	67.8313	-69.7854	-31.6534	80.2321	-101.492	9.74554	55.5089	-94.502	-16.8988	50.5692	-53.0573	-16.9774	55.8105	-92.7998	16.5682	41.3359	-71.1476	-2.86059	55.1697	-39.785	2.0904	50.6321	-81.2954	38.6749	33.0356	-63.3664	11.5616	42.4037	-36.3869	10.2535	93.3616	-81.943	71.3067	106.962	-68.6749	98.0008	128.744	-74.137	62.5021	
119	0.991667	136.632	-32.9164	44.2878	120.625	-28.3826	11.3698	98.1877	-32.5565	-12.6759	70.9998	-41.8719	-18.5499	105.57	-94.7335	4.43223	79.5438	-100.158	-19.4565	65.4957	-71.1839	-31.0558	78.605	-103.853	6.91668	54.7254	-92.7346	-18.2834	49.6894	-55.0041	-16.726	61.4169	-92.5975	17.4392	41.576	-73.6741	-3.67007	52.3332	-43.6337	0.0858843	49.3161	-81.9573	40.0317	35.726	-65.5319	10.2069	41.4487	-35.9856	8.53805	94.8138	-79.3762	69.9879	109.593	-70.3694	94.111	130.686	-70.4439	60.6271	
120	1	138.504	-32.1337	43.779	121.531	-28.9747	8.32083	97.7039	-32.5625	-14.6975	72.1263	-41.2294	-20.7172	100.635	-96.9935	1.93661	80.6733	-99.4561	-22.5368	63.9437	-71.6154	-31.6488	79.8833	-102.929	3.83871	54.8951	-93.733	-17.5692	51.5148	-52.3119	-18.711	60.6279	-93.2148	17.473	41.2879	-78.7547	-3.90416	48.1702	-43.6613	-0.735009	49.1419	-81.7576	38.6353	34.3248	-69.437	11.6573	39.5505	-36.063	6.61349	93.9579	-81.4617	65.6593	111.769	-68.7156	96.2859	130.391	-72.2488	61.4029	
121	1.00833	138.6	-32.6263	43.1072	124.626	-23.9416	12.6444	99.4147	-31.4613	-16.5386	74.3632	-38.7144	-24.1959	102.237	-94.1622	3.30397	80.5863	-96.5047	-25.5328	63.8362	-67.0871	-33.796	78.7154	-101.262	9.34602	55.8709	-93.4654	-18.9478	53.1189	-49.6811	-16.306	58.7338	-94.3867	19.0971	40.7723	-77.0692	-4.07325	50.8536	-42.6525	-3.28689	48.9638	-82.4498	36.0509	35.8829	-69.8305	10.0831	37.4402	-36.5085	5.48771	93.3693	-81.7486	67.1845	107.086	-68.9886	95.2868	126.235	-71.5872	61.4638	
122	1.01667	140.143	-33.2731	42.1007	126.271	-24.4709	10.6074	104.2	-28.9731	-16.5972	78.1173	-39.0826	-24.043	103.633	-95.6097	-0.625133	80.8249	-96.6305	-26.0866	67.617	-70.9686	-35.6149	81.2226	-101.706	8.58799	55.1757	-93.9795	-16.8512	54.0585	-51.9953	-19.7954	58.4467	-94.8214	17.4974	41.8762	-78.4956	-5.68989	47.8986	-42.383	-3.20043	50.9703	-82.433	32.5878	35.9589	-70.5096	10.9335	36.7483	-35.099	7.59003	91.867	-83.7101	67.8477	107.871	-68.3356	98.5446	132.884	-70.4504	62.6206	
123	1.025	141.55	-32.0728	44.6007	127.637	-26.4926	8.941	109.234	-28.4402	-15.4336	83.1407	-35.9373	-32.9604	105.219	-95.0887	-0.387846	83.9777	-97.6729	-25.7861	65.1274	-65.1183	-34.4376	79.492	-102.362	7.98779	55.9196	-92.163	-19.352	53.7287	-53.9488	-21.6486	59.0557	-95.8343	15.7618	42.9927	-79.2386	-6.0591	46.239	-45.1429	-4.79735	48.7805	-83.0662	38.2315	31.6448	-65.7665	10.8729	35.1483	-35.7245	5.63534	92.1109	-82.8568	69.5834	109.877	-69.9849	97.4611	131.556	-69.6709	62.42	
